PERFORMER "Greg Wilson"
TITLE "Essential Mix (2009-01-17) [TMB]"
FILE "Essential Mix - 2009-01-17 - Greg Wilson.mp3" MP3
  TRACK 01 AUDIO
    PERFORMER "Essential Mix"
    TITLE "Intro"
    INDEX 01 00:00:00
  TRACK 02 AUDIO
    PERFORMER "Greg Wilson"
    TITLE "Intro"
    INDEX 01 01:13:00
  TRACK 03 AUDIO
    PERFORMER "The Originals"
    TITLE "Down To Love Town (Dimitri From Paris Edit)"
    INDEX 01 02:03:00
  TRACK 04 AUDIO
    PERFORMER "Soul Searchers"
    TITLE "Blow Your Whistle"
    INDEX 01 05:29:00
  TRACK 05 AUDIO
    PERFORMER "Goody Goody"
    TITLE "It Looks Like Love"
    INDEX 01 07:56:00
  TRACK 06 AUDIO
    PERFORMER "Shirley Lites"
    TITLE "Heat You Up (Melt Down Mix) "
    INDEX 01 09:57:00
  TRACK 07 AUDIO
    PERFORMER "Metro Area"
    TITLE "Dance Reaction"
    INDEX 01 12:23:00
  TRACK 08 AUDIO
    PERFORMER "Talking Heads"
    TITLE "Psycho Killer (GW Edit)"
    INDEX 01 14:45:00
  TRACK 09 AUDIO
    PERFORMER "Sugardaddy"
    TITLE "Love Honey (GW Version)"
    INDEX 01 16:45:00
  TRACK 10 AUDIO
    PERFORMER "Chic"
    TITLE "I Want Your Love (Todd Terje Edit)"
    INDEX 01 20:05:00
  TRACK 11 AUDIO
    PERFORMER "Q"
    TITLE "The Voice Of Q"
    INDEX 01 24:29:00
  TRACK 12 AUDIO
    PERFORMER "Nitro Deluxe"
    TITLE "This Brutal House"
    INDEX 01 27:12:00
  TRACK 13 AUDIO
    PERFORMER "Atlantic Conveyor"
    TITLE "We Are"
    INDEX 01 28:36:00
  TRACK 14 AUDIO
    PERFORMER "Firefly"
    TITLE "Love (Is Gonna Be On Your Side)"
    INDEX 01 31:22:00
  TRACK 15 AUDIO
    PERFORMER "Kasso"
    TITLE "Walkman"
    INDEX 01 33:54:00
  TRACK 16 AUDIO
    PERFORMER "Rose Royce"
    TITLE "Do Your Dance"
    INDEX 01 35:25:00
  TRACK 17 AUDIO
    PERFORMER "Gunchback Boogie Band"
    TITLE "Funn"
    INDEX 01 37:27:00
  TRACK 18 AUDIO
    PERFORMER "Rufus feat. Chaka Khan"
    TITLE "Ain'92t Nobody (Frankie Knuckles Mix)"
    INDEX 01 38:04:00
  TRACK 19 AUDIO
    PERFORMER "Happy Mondays"
    TITLE "WFL (Vince Clarke Mix)"
    INDEX 01 40:11:00
  TRACK 20 AUDIO
    PERFORMER "Young Dog Alien"
    TITLE "Gotta Keep Workin'92 It (GW Mash-Up)"
    INDEX 01 48:02:00
  TRACK 21 AUDIO
    PERFORMER "Stevie Wonder"
    TITLE "Superstition (Todd Terje Edit)"
    INDEX 01 51:00:00
  TRACK 22 AUDIO
    PERFORMER "Loose Ends"
    TITLE "Hangin'92 On A String (Frankie Knuckles Mix)"
    INDEX 01 52:56:00
  TRACK 23 AUDIO
    PERFORMER "Aretha Franklin"
    TITLE "Rock Steady (Danny Krivit Edit)"
    INDEX 01 54:56:00
  TRACK 24 AUDIO
    PERFORMER "Gwen Guthrie"
    TITLE "Seventh Heaven (Larry Levan Mix) "
    INDEX 01 58:09:00
  TRACK 25 AUDIO
    PERFORMER "The Commodores"
    TITLE "Machine Gun (Situation Edit)"
    INDEX 01 61:00:00
  TRACK 26 AUDIO
    PERFORMER "B.T. (Breanda Taylor)"
    TITLE "You Can'92t Have Your Cake And Eat It Too (GW Edit)"
    INDEX 01 64:20:00
  TRACK 27 AUDIO
    PERFORMER "West Phillips"
    TITLE "(I'92m Just A) Sucker For A Pretty Face"
    INDEX 01 66:34:00
  TRACK 28 AUDIO
    PERFORMER "Edit The Edit"
    TITLE "Two Sides Of Sympanthy (PTA Mash-Up / GW Edit)"
    INDEX 01 69:35:00
  TRACK 29 AUDIO
    PERFORMER "Stone Roses"
    TITLE "Fools Gold"
    INDEX 01 74:03:00
  TRACK 30 AUDIO
    PERFORMER "Banbarra"
    TITLE "Shack Up"
    INDEX 01 76:22:00
  TRACK 31 AUDIO
    PERFORMER "War"
    TITLE "Me And Baby Brother"
    INDEX 01 78:33:00
  TRACK 32 AUDIO
    PERFORMER "Gino Soccio"
    TITLE "Try It Out"
    INDEX 01 81:18:00
  TRACK 33 AUDIO
    PERFORMER "Geraldine Hunt"
    TITLE "Can'92t Fake The Feeling"
    INDEX 01 83:45:00
  TRACK 34 AUDIO
    PERFORMER "Brown"
    TITLE "I Specialize In Love"
    INDEX 01 87:16:00
  TRACK 35 AUDIO
    PERFORMER "Visual"
    TITLE "The Music Got Me"
    INDEX 01 89:10:00
  TRACK 36 AUDIO
    PERFORMER "Incredible Bongo Band"
    TITLE "Apache"
    INDEX 01 91:47:00
  TRACK 37 AUDIO
    PERFORMER "Tweet"
    TITLE "Boogie 2nite (Fat Camp Mix)"
    INDEX 01 94:15:00
  TRACK 38 AUDIO
    PERFORMER "Dc La Rue"
    TITLE "Cathedrals (GW Edit)"
    INDEX 01 98:38:00
  TRACK 39 AUDIO
    PERFORMER "Teenage DJ"
    TITLE "I Was A Teenage DJ Pt 1 (GW Edit)"
    INDEX 01 101:42:00
  TRACK 40 AUDIO
    PERFORMER "Sir Joe Quarterman"
    TITLE "(I Got) So Much Trouble In My Mind (Barna Soundmachine Edit)"
    INDEX 01 102:14:00
  TRACK 41 AUDIO
    PERFORMER "League Unlimited Orchestra"
    TITLE "Things That Dreams Are Made Of"
    INDEX 01 104:39:00
  TRACK 42 AUDIO
    PERFORMER "TW Funkmasters"
    TITLE "Love Money"
    INDEX 01 106:43:00
  TRACK 43 AUDIO
    PERFORMER "Last Rhythm"
    TITLE "Last Rhythm"
    INDEX 01 109:18:00
  TRACK 44 AUDIO
    PERFORMER "The Clash"
    TITLE "Casbah Breakdown (Joey Negro Edit)"
    INDEX 01 113:23:00
  TRACK 45 AUDIO
    PERFORMER "808 State"
    TITLE "Pacific State (GW Edit)"
    INDEX 01 115:44:00
  TRACK 46 AUDIO
    PERFORMER "Essential Mix"
    TITLE "Outro"
    INDEX 01 118:47:00